<svg xmlns="http://www.w3.org/2000/svg" xml:space="preserve" width="25" height="25" viewBox="0 0 496 496">
  <path d="M495.81 243.056c-.328-10.688-8.952-19.056-19.64-19.056-6.944 0-13.264 3.648-16.896 9.744-30.392 50.92-88.136 77.776-147.152 68.36-70.264-11.176-120.6-71.832-119.68-144.224.712-56.336 29.032-102.016 77.68-125.336 5.976-2.864 9.688-8.688 9.688-15.2 0-8.896-7-16.296-15.936-16.848A251.184 251.184 0 0 0 248.434 0C180.018 0 113.93 28.664 67.098 78.64 19.73 129.2-3.862 195.232.658 264.576 8.778 388.904 108.61 488.2 232.89 495.552c5.104.304 10.184.448 15.256.448 63.512 0 123.336-23.656 169.824-67.472 50.24-47.36 77.92-111.472 77.92-180.528 0-1.648-.032-3.304-.08-4.944zm-88.824 173.832c-46.952 44.256-108.472 66.488-173.152 62.688-116.24-6.88-209.616-99.76-217.208-216.04-4.232-64.88 17.832-126.664 62.144-173.96C122.586 42.824 184.426 16 248.434 16c4.784 0 9.576.168 14.448.472.528.032.928.408.928.872 0 .36-.312.64-.6.776-53.544 25.664-85.976 77.832-86.76 139.56-1.016 80.4 54.984 147.792 133.168 160.232 65.496 10.424 129.632-19.4 163.408-75.976v-.008c1.848-3.096 6.704-1.592 6.8 1.6.04 1.488.072 2.976.072 4.464-.008 64.608-25.904 124.592-72.912 168.896zM335.81 0h16v24h-16zM351.81 24h24v16h-24zM335.81 40h16v24h-16zM311.81 24h24v16h-24z"/><path d="M399.81 112h16v24h-16zM415.81 136h24v16h-24zM399.81 152h16v24h-16zM375.81 136h24v16h-24zM287.81 104h16v16h-16zM303.81 120h16v16h-16zM287.81 136h16v16h-16zM271.81 120h16v16h-16z"/>
</svg>
