<svg xmlns="http://www.w3.org/2000/svg" xml:space="preserve" width="35" height="35" viewBox="0 0 512 512">
  <path d="M21.333 21.333h213.333v96c0 5.867 4.8 10.667 10.667 10.667h96v74.667h21.333v-85.333c0-2.88-1.173-5.547-3.093-7.573L252.907 3.093C250.88 1.173 248.213 0 245.333 0H10.667C4.8 0 0 4.8 0 10.667v448c0 5.867 4.8 10.667 10.667 10.667H224V448H21.333V21.333zM256 36.373l70.293 70.293H256V36.373z"/>
  <path d="m510.827 496.533-128-256c-3.627-7.253-15.467-7.253-19.093 0l-128 256c-2.667 5.227-.533 11.627 4.8 14.293 1.493.747 3.093 1.173 4.8 1.173h256C507.2 512 512 507.2 512 501.333c0-1.6-.427-3.306-1.173-4.8zm-248.214-5.866 110.72-221.44 110.72 221.44h-221.44z"/>
  <path d="M362.667 350.08v69.44c0 5.333 3.84 10.133 9.067 10.88 6.613.96 12.267-4.16 12.267-10.56V350.4c0-5.333-3.84-10.133-9.067-10.88-6.614-.96-12.267 4.16-12.267 10.56z"/>
  <path d="M373.333 444.16c-5.867 0-10.667 4.8-10.667 10.667s4.8 10.667 10.667 10.667S384 460.694 384 454.827s-4.8-10.667-10.667-10.667z"/>
</svg>
