<svg xmlns="http://www.w3.org/2000/svg" xml:space="preserve" width="25" height="25" viewBox="0 0 40 64">
  <g stroke-linecap="round" stroke-linejoin="round" stroke-width="2" fill="none">
    <path d="m9.6 49 20.6-3c0-6.5 8.8-14.6 8.8-25.6C39 9.7 30.5 1 20 1S1 9.7 1 20.4c0 10.9 8.6 19 8.6 25.5V49h0zM11 53.3l18.8-2.9M11 57.2l18.8-2.9M27.3 60.1c0 1.6-3.1 2.9-7 2.9s-7-1.3-7-2.9"/>
    <path d="M17.4 41.8c0-12.4-3.5-16.8-3.5-16.8s1.4 3.1 3 3.1c1.7 0 3-1.4 3-3.1 0 1.7 1.4 3.1 3 3.1 1.7 0 3-3.1 3-3.1s-2.8 6.7-2.8 16.8"/>
  </g>
</svg>
