<svg xmlns="http://www.w3.org/2000/svg" width="250" height="45" viewBox="0 0 509 73">
	<path fill="#8075FF" d="M.888 32.898H13.59c2.704 0 5.05.44 7.037 1.316 1.987.878 3.518 2.176 4.592 3.894 1.092 1.701 1.638 3.796 1.638 6.285 0 1.844-.394 3.518-1.182 5.022A10.865 10.865 0 0 1 22.48 53.2c-1.361 1.003-2.937 1.692-4.727 2.068l-1.155.43H3.036l-.054-2.82h11.36c2.041 0 3.742-.394 5.103-1.182 1.36-.788 2.381-1.826 3.061-3.115a8.758 8.758 0 0 0 1.048-4.19c0-1.772-.385-3.303-1.155-4.592-.752-1.307-1.871-2.31-3.357-3.008-1.486-.698-3.303-1.047-5.452-1.047h-9.4V72H.889V32.898ZM25.03 72 14.906 54.517l3.545-.027L28.55 71.65V72H25.03Zm35.207-2.82V72H38.244v-2.82h21.994Zm-21-36.282V72h-3.304V32.898h3.303Zm18.261 17.537v2.82H38.244v-2.82h19.255Zm2.605-17.537v2.847h-21.86v-2.847h21.86ZM79.467 67.14 91.793 32.9h3.6L80.835 72h-2.658l1.289-4.86ZM66.737 32.9l12.273 34.24L80.353 72h-2.685l-14.53-39.102h3.6Zm62.95 17.456v4.189c0 2.74-.359 5.219-1.075 7.439-.698 2.202-1.718 4.09-3.061 5.666a13.373 13.373 0 0 1-4.78 3.626c-1.862.841-3.957 1.262-6.285 1.262-2.273 0-4.35-.42-6.23-1.262a13.617 13.617 0 0 1-4.807-3.626c-1.343-1.575-2.381-3.464-3.116-5.666-.734-2.22-1.1-4.7-1.1-7.44v-4.188c0-2.74.358-5.21 1.074-7.413.734-2.22 1.772-4.117 3.115-5.693a13.617 13.617 0 0 1 4.807-3.626c1.862-.84 3.93-1.262 6.204-1.262 2.327 0 4.422.421 6.284 1.263a13.617 13.617 0 0 1 4.807 3.625c1.343 1.575 2.372 3.473 3.088 5.693.716 2.203 1.075 4.673 1.075 7.413Zm-3.277 4.189V50.3c0-2.31-.268-4.387-.806-6.23-.519-1.845-1.298-3.42-2.336-4.727a10.227 10.227 0 0 0-3.76-3.008c-1.486-.698-3.178-1.047-5.075-1.047-1.844 0-3.501.349-4.969 1.047a10.524 10.524 0 0 0-3.759 3.008c-1.021 1.307-1.809 2.882-2.364 4.726-.537 1.844-.805 3.921-.805 6.23v4.244c0 2.327.268 4.422.805 6.284.555 1.844 1.352 3.429 2.39 4.754a10.536 10.536 0 0 0 3.76 3.007c1.486.699 3.151 1.048 4.995 1.048 1.916 0 3.608-.35 5.076-1.048a10.296 10.296 0 0 0 3.733-3.007c1.02-1.325 1.79-2.91 2.309-4.754.538-1.862.806-3.957.806-6.284Z"/>
	<path fill="#4287F5" d="M180.126 47.879H162.45V34.647h17.676c2.409 0 4.362-.407 5.859-1.221 1.498-.814 2.588-1.937 3.272-3.37.716-1.464 1.074-3.108 1.074-4.931 0-1.953-.358-3.76-1.074-5.42a8.746 8.746 0 0 0-3.272-4.004c-1.497-1.042-3.45-1.562-5.859-1.562h-11.23V72h-17.139V.906h28.369c5.697 0 10.596 1.042 14.697 3.125 4.134 2.084 7.308 4.948 9.522 8.594 2.213 3.613 3.32 7.747 3.32 12.402 0 4.59-1.107 8.594-3.32 12.012-2.214 3.418-5.388 6.087-9.522 8.008-4.101 1.888-9 2.832-14.697 2.832Zm83.74 10.937V72h-35.937V58.816h35.937ZM234.032.906V72h-17.138V.906h17.138Zm68.164 14.942L284.862 72h-18.408L292.577.906h11.67l-2.051 14.942ZM316.552 72l-17.383-56.152L296.923.906h11.816L335.009 72h-18.457Zm-.684-26.514V58.72h-36.474V45.486h36.474ZM345.8.906l13.086 30.86L372.021.906h18.457l-22.852 45.557V72h-17.432V46.463L327.294.906H345.8Zm98.828 57.91V72h-37.891V58.816h37.891ZM412.841.906V72h-17.139V.906h17.139Zm26.904 28.223v12.744h-33.008V29.129h33.008ZM444.774.906V14.14h-38.037V.906h38.037Zm6.885 0h27.979c5.468 0 10.221.814 14.258 2.442 4.036 1.627 7.145 4.036 9.326 7.226 2.213 3.19 3.32 7.13 3.32 11.817 0 4.069-.635 7.47-1.904 10.205-1.27 2.734-3.044 4.996-5.323 6.787-2.246 1.758-4.866 3.206-7.861 4.345l-5.615 3.174h-23.486l-.098-13.232h17.383c2.181 0 3.987-.39 5.42-1.172 1.432-.781 2.506-1.888 3.222-3.32.749-1.465 1.123-3.207 1.123-5.225 0-2.05-.374-3.808-1.123-5.273a7.715 7.715 0 0 0-3.32-3.37c-1.432-.78-3.206-1.171-5.322-1.171h-10.84V72h-17.139V.906ZM490.575 72l-15.722-31.445 18.164-.098 15.918 30.81V72h-18.36Z"/>
</svg>
