<svg xmlns="http://www.w3.org/2000/svg" xml:space="preserve" width="25" height="25" viewBox="0 0 512 512">
  <path d="m453.117 253.467 54.386-54.394c5.996-5.996 5.996-15.713 0-21.709s-15.713-5.996-21.709 0l-54.386 54.385-54.394-54.385c-5.997-5.996-15.713-5.996-21.709 0-5.997 5.996-5.997 15.713 0 21.709l54.384 54.394-54.384 54.385c-5.997 5.996-5.997 15.713 0 21.709 5.996 5.996 15.712 5.996 21.709 0l54.394-54.386 54.386 54.386c5.996 5.996 15.713 5.996 21.709 0s5.996-15.713 0-21.709l-54.386-54.385z"/>
</svg>
