<svg xmlns="http://www.w3.org/2000/svg" width="150" height="150" fill="none" viewBox="0 0 150 150">
  <rect width="150" height="150" fill="#F8F0FB" rx="10"/>
  <path fill="#8075FF" d="M29.11 56.125h18.476c3.932 0 7.344.638 10.234 1.914 2.89 1.276 5.117 3.164 6.68 5.664 1.588 2.474 2.383 5.521 2.383 9.14 0 2.683-.573 5.118-1.719 7.305a15.803 15.803 0 0 1-4.648 5.508c-1.98 1.459-4.271 2.461-6.875 3.008l-1.68.625H32.234l-.078-4.102H48.68c2.968 0 5.442-.572 7.422-1.718 1.979-1.146 3.463-2.656 4.453-4.531a12.74 12.74 0 0 0 1.523-6.094c0-2.578-.56-4.805-1.68-6.68-1.093-1.901-2.72-3.36-4.882-4.375-2.162-1.016-4.805-1.523-7.93-1.523H33.914V113H29.11V56.125ZM64.226 113 49.5 87.57l5.156-.039 14.688 24.961V113h-5.117Z"/>
  <path fill="#4287F5" d="M102.027 86.467H82.584V71.91h19.443c2.65 0 4.799-.448 6.446-1.343 1.647-.895 2.846-2.13 3.598-3.706.788-1.611 1.182-3.42 1.182-5.424 0-2.149-.394-4.136-1.182-5.962a9.62 9.62 0 0 0-3.598-4.405c-1.647-1.145-3.796-1.718-6.446-1.718H89.674V113H70.82V34.797h31.206c6.267 0 11.656 1.146 16.167 3.437 4.548 2.292 8.039 5.443 10.474 9.453 2.435 3.975 3.652 8.523 3.652 13.643 0 5.049-1.217 9.453-3.652 13.213s-5.926 6.696-10.474 8.809c-4.511 2.076-9.9 3.115-16.167 3.115Z"/>
</svg>