<?xml version="1.0" standalone="no"?>
<!DOCTYPE svg PUBLIC "-//W3C//DTD SVG 20010904//EN"
 "http://www.w3.org/TR/2001/REC-SVG-20010904/DTD/svg10.dtd">
<svg version="1.0" xmlns="http://www.w3.org/2000/svg"
 width="700.000000pt" height="700.000000pt" viewBox="0 0 700.000000 700.000000"
 preserveAspectRatio="xMidYMid meet">
<metadata>
Created by potrace 1.14, written by Peter Selinger 2001-2017
</metadata>
<g transform="translate(0.000000,700.000000) scale(0.100000,-0.100000)"
fill="#000000" stroke="none">
<path d="M3300 3550 l0 -1830 445 0 445 0 0 619 0 619 413 5 c455 6 534 14
741 78 272 84 511 250 645 448 229 338 254 828 61 1213 -154 308 -458 537
-835 629 -185 45 -283 49 -1122 49 l-793 0 0 -1830z m1608 1125 c218 -51 354
-239 369 -505 9 -157 -36 -295 -123 -385 -54 -57 -165 -110 -254 -125 -36 -5
-210 -10 -387 -10 l-323 0 0 520 0 520 328 0 c254 0 341 -4 390 -15z"/>
<path d="M1350 3055 l0 -1335 120 0 120 0 0 555 0 555 382 -2 382 -3 320 -552
320 -553 123 0 c112 0 123 2 123 18 0 10 -148 270 -329 577 l-329 559 77 31
c254 102 430 333 461 604 12 107 -1 260 -31 359 -73 238 -264 409 -535 477
-138 36 -303 45 -781 45 l-423 0 0 -1335z m1130 1096 c41 -12 102 -37 135 -54
72 -38 170 -134 208 -204 62 -115 84 -302 52 -428 -52 -199 -175 -333 -370
-402 l-80 -28 -417 -3 -418 -3 0 576 0 576 408 -3 c388 -4 411 -5 482 -27z"/>
</g>
</svg>
